<?xml version="1.0" encoding="utf-8"?>
<!-- Generator: Adobe Illustrator 16.0.0, SVG Export Plug-In . SVG Version: 6.00 Build 0)  -->
<!DOCTYPE svg PUBLIC "-//W3C//DTD SVG 1.0//EN" "http://www.w3.org/TR/2001/REC-SVG-20010904/DTD/svg10.dtd">
<svg version="1.0" id="Layer_1" xmlns="http://www.w3.org/2000/svg" xmlns:xlink="http://www.w3.org/1999/xlink" x="0px" y="0px"
	 width="100px" height="100px" viewBox="0 0 100 100" style="enable-background:new 0 0 100 100;" xml:space="preserve">
<g>
	<path style="fill:#333333;" d="M59.426,40.477c0-0.822-0.04-1.63-0.122-2.431l6.037-4.133c-0.425-1.931-1.034-3.79-1.805-5.564
		l-7.323,0.204c-0.818-1.405-1.773-2.721-2.852-3.924l2.451-6.896c-1.457-1.291-3.041-2.445-4.729-3.44l-5.801,4.464
		c-1.467-0.65-3.012-1.158-4.617-1.501l-2.068-7.019c-0.963-0.09-1.938-0.14-2.925-0.14c-0.986,0-1.962,0.049-2.924,0.14
		l-2.068,7.019c-1.605,0.344-3.15,0.851-4.618,1.501l-5.8-4.464c-1.688,0.996-3.271,2.15-4.729,3.44l2.453,6.896
		c-1.08,1.204-2.034,2.519-2.852,3.924L7.81,28.349c-0.772,1.774-1.381,3.633-1.806,5.564l6.038,4.133
		c-0.081,0.801-0.123,1.609-0.123,2.431c0,0.82,0.042,1.63,0.123,2.429l-6.038,4.138c0.425,1.927,1.034,3.788,1.806,5.56
		l7.323-0.202c0.817,1.405,1.773,2.722,2.853,3.926l-2.453,6.894c1.458,1.292,3.042,2.446,4.729,3.441l5.8-4.463
		c1.468,0.648,3.013,1.158,4.618,1.501l2.068,7.017c0.962,0.094,1.938,0.142,2.924,0.142c0.987,0,1.962-0.048,2.925-0.142
		l2.068-7.017c1.605-0.343,3.15-0.853,4.617-1.501l5.801,4.463c1.688-0.995,3.271-2.149,4.729-3.441l-2.451-6.894
		c1.078-1.204,2.033-2.521,2.852-3.926l7.323,0.202c0.771-1.772,1.38-3.633,1.805-5.56l-6.037-4.138
		C59.386,42.107,59.426,41.297,59.426,40.477z M35.672,56.205c-8.788,0-15.911-7.125-15.911-15.913
		c0-8.789,7.123-15.913,15.911-15.913c8.789,0,15.912,7.125,15.912,15.913C51.584,49.08,44.461,56.205,35.672,56.205z"/>
	</g>
	<g>
	<path style="fill:#333333;" d="M93.381,69.98c0.014-0.659-0.002-1.324-0.056-1.996c-0.053-0.672-0.138-1.33-0.257-1.979
		l-6.064-1.637c-0.373-0.978-0.844-1.903-1.404-2.764l2.242-5.866c-0.922-0.961-1.939-1.828-3.031-2.588l-5.443,3.131
		c-0.938-0.422-1.926-0.743-2.951-0.958l-2.561-5.736c-0.661-0.015-1.325,0.005-1.997,0.057c-0.671,0.052-1.331,0.137-1.979,0.255
		l-1.635,6.066c-0.977,0.371-1.904,0.844-2.765,1.406l-5.865-2.243c-0.962,0.921-1.829,1.938-2.591,3.032l3.133,5.441
		c-0.422,0.938-0.744,1.927-0.959,2.951l-5.736,2.561c-0.014,0.66,0.004,1.324,0.059,1.995c0.052,0.672,0.137,1.332,0.254,1.979
		l6.065,1.637c0.372,0.978,0.846,1.904,1.407,2.766l-2.244,5.863c0.921,0.963,1.938,1.83,3.032,2.59l5.441-3.131
		c0.938,0.422,1.927,0.744,2.952,0.958l2.561,5.737c0.659,0.014,1.326-0.005,1.995-0.059c0.671-0.051,1.331-0.139,1.979-0.253
		l1.636-6.067c0.979-0.371,1.905-0.843,2.767-1.405l5.863,2.243c0.963-0.922,1.83-1.938,2.59-3.031l-3.131-5.443
		c0.422-0.938,0.742-1.926,0.957-2.95L93.381,69.98z M74.158,78.932c-5.183,0.406-9.715-3.467-10.123-8.648
		c-0.403-5.182,3.467-9.715,8.65-10.123c5.182-0.404,9.715,3.467,10.121,8.65S79.342,78.525,74.158,78.932z"/>
</g>
</svg>
