<?xml version="1.0" encoding="utf-8"?>
<!-- Generator: Adobe Illustrator 16.0.0, SVG Export Plug-In . SVG Version: 6.00 Build 0)  -->
<!DOCTYPE svg PUBLIC "-//W3C//DTD SVG 1.0//EN" "http://www.w3.org/TR/2001/REC-SVG-20010904/DTD/svg10.dtd">
<svg version="1.0" id="Layer_1" xmlns="http://www.w3.org/2000/svg" xmlns:xlink="http://www.w3.org/1999/xlink" x="0px" y="0px"
	 width="100px" height="100px" viewBox="0 0 100 100" style="enable-background:new 0 0 100 100;" xml:space="preserve">
<g id="Layer_4">
	<g>
		<g>
			<path style="fill:#333333;" d="M60.324,76H37.263l-0.004-1.434c0-0.074-0.131-7.711-6.158-15.767
				c-5.167-6.899-7.897-15.976-7.897-25.125C23.204,19.081,34.808,7,49.628,7h0.069c7.084,0,13.713,3.325,18.678,8.181
				c5.008,4.899,7.766,11.795,7.766,18.852c0,9.037-2.763,17.66-7.99,24.646c-6.037,8.064-6.269,15.785-6.27,15.861L61.85,76H60.324
				z M40.264,72h18.628c0.353-2,1.688-8.809,6.765-15.593c4.821-6.442,7.37-13.984,7.37-22.346c0-12.87-10.264-22.825-23.366-22.843
				c-13.088,0.018-23.342,10.177-23.342,23.04c0,8.469,2.515,15.781,7.275,22.143C38.662,63.171,39.942,70,40.264,72z"/>
		</g>
		<g>
			<path style="fill:#333333;" d="M61.48,80H38.125c-0.86,0-1.556-0.641-1.556-1.5s0.696-1.5,1.556-1.5H61.48
				c0.86,0,1.559,0.641,1.559,1.5S62.342,80,61.48,80z"/>
		</g>
		<g>
			<path style="fill:#333333;" d="M61.48,84H38.125c-0.86,0-1.556-0.641-1.556-1.5s0.696-1.5,1.556-1.5H61.48
				c0.86,0,1.559,0.641,1.559,1.5S62.342,84,61.48,84z"/>
		</g>
		<g>
			<path style="fill:#333333;" d="M60.963,88H38.125c-0.86,0-1.556-0.641-1.556-1.5s0.696-1.5,1.556-1.5h22.838
				c0.859,0,1.557,0.641,1.557,1.5S61.822,88,60.963,88z"/>
		</g>
		<g>
			<path style="fill:#333333;" d="M59.404,92H39.683c-0.86,0-1.558-0.641-1.558-1.5s0.698-1.5,1.558-1.5h19.723
				c0.859,0,1.558,0.641,1.558,1.5C60.963,91.359,60.266,92,59.404,92z"/>
		</g>
		<g>
			<g>
				<g>
					<path style="fill:#3C3C3B;" d="M43.5,44.916c-0.75,0-1.5-0.811-1.5-1.812v-5.435c0-1,0.75-1.811,1.5-1.811S45,36.67,45,37.669
						v5.435C45,44.105,44.25,44.916,43.5,44.916z"/>
				</g>
				<g>
					<path style="fill:#3C3C3B;" d="M51.5,45.822c-0.75,0-1.5-0.812-1.5-1.812v-8.151c0-1,0.75-1.812,1.5-1.812s1.5,0.812,1.5,1.812
						v8.151C53,45.011,52.25,45.822,51.5,45.822z"/>
				</g>
				<g>
					<path style="fill:#3C3C3B;" d="M47.5,45.822c-1.001,0-1.5-0.812-1.5-1.812v-8.151c0-1,0.499-1.812,1.5-1.812
						c1,0,1.5,0.812,1.5,1.812v8.151C49,45.011,48.5,45.822,47.5,45.822z"/>
				</g>
				<g>
					<path style="fill:#3C3C3B;" d="M55.5,44.916c-0.859,0-1.5-0.811-1.5-1.812v-5.435c0-1,0.641-1.811,1.5-1.811
						c0.857,0,1.5,0.812,1.5,1.811v5.435C57,44.105,56.357,44.916,55.5,44.916z"/>
				</g>
			</g>
		</g>
	</g>
</g>
</svg>
