<?xml version="1.0" encoding="utf-8"?>
<!-- Generator: Adobe Illustrator 16.0.0, SVG Export Plug-In . SVG Version: 6.00 Build 0)  -->
<!DOCTYPE svg PUBLIC "-//W3C//DTD SVG 1.0//EN" "http://www.w3.org/TR/2001/REC-SVG-20010904/DTD/svg10.dtd">
<svg version="1.0" id="Layer_1" xmlns="http://www.w3.org/2000/svg" xmlns:xlink="http://www.w3.org/1999/xlink" x="0px" y="0px"
	 width="100px" height="100px" viewBox="0 0 100 100" style="enable-background:new 0 0 100 100;" xml:space="preserve">
<path style="fill:#3C3C3B;" d="M31.737,63.857c-3.742,4.451-5.794,8.138-4.842,9.086c0.942,0.943,4.575-1.068,8.977-4.752
	c-1.059-0.27-1.94-0.748-2.628-1.436C32.479,65.992,31.988,65.014,31.737,63.857z"/>
<path style="fill:#3C3C3B;" d="M83.814,28.986c3.461-8.145,4.748-15.451,5.106-17.907c-2.422,0.356-9.547,1.613-17.545,4.959
	c-6,2.509-12.483,6.189-17.851,11.552C38.75,42.368,29.367,60.928,34.219,65.781c0.857,0.855,2.165,1.292,3.887,1.292
	c7.812,0,22.561-8.855,34.305-20.598c5.26-5.261,8.896-11.594,11.401-17.489H83.814z M74.865,31.02c0,3.339-2.707,6.046-6.047,6.046
	c-3.338,0-6.045-2.707-6.045-6.046s2.707-6.046,6.045-6.046C72.158,24.974,74.865,27.681,74.865,31.02z"/>
<path style="fill:#3C3C3B;" d="M49,81.34c-6.358,6.36-13.738,9.296-16.481,6.555c3.902-6.801,1.847-11.776,8.208-18.14
	c10.97-2.21,17.828-8.448,17.828-8.448S55.361,74.979,49,81.34z"/>
<path style="fill:#3C3C3B;" d="M18.661,51c-6.362,6.359-9.297,13.739-6.554,16.482c6.801-3.903,11.776-1.849,18.14-8.209
	c2.209-10.968,8.45-17.829,8.45-17.829S25.022,44.637,18.661,51z"/>
</svg>
