<?xml version="1.0" encoding="utf-8"?>
<!-- Generator: Adobe Illustrator 16.0.0, SVG Export Plug-In . SVG Version: 6.00 Build 0)  -->
<!DOCTYPE svg PUBLIC "-//W3C//DTD SVG 1.1//EN" "http://www.w3.org/Graphics/SVG/1.1/DTD/svg11.dtd">
<svg version="1.1" id="Layer_1" xmlns="http://www.w3.org/2000/svg" xmlns:xlink="http://www.w3.org/1999/xlink" x="0px" y="0px"
	 width="100px" height="100px" viewBox="0 0 100 100" style="enable-background:new 0 0 100 100;" xml:space="preserve">
<g>
	<path style="fill-rule:evenodd;clip-rule:evenodd;fill:#333333;" d="M56.07,39.638c-0.973,4.231-1.995,8.452-2.838,12.704
		c-0.129,0.625,0.508,1.512,1.001,2.114c3.421,4.119,6.958,8.164,10.324,12.328c0.817,1.005,1.439,2.326,1.706,3.595
		c1.105,5.247,2.063,10.514,3.059,15.776c0.583,3.096-0.875,5.675-3.463,6.193c-2.971,0.594-5.219-1.099-5.879-4.487
		c-0.92-4.738-1.794-9.484-2.73-14.221c-0.121-0.656-0.224-1.438-0.633-1.896c-3.142-3.547-6.357-7.024-9.859-10.863
		c-0.798,3.511-1.47,6.578-2.177,9.637c-0.198,0.805-0.387,1.645-0.794,2.338c-3.362,5.811-6.724,11.633-10.226,17.361
		c-1.463,2.384-4.384,2.918-6.542,1.52c-2.131-1.392-2.782-4.141-1.357-6.619c2.598-4.507,5.338-8.946,7.976-13.438
		c0.521-0.9,0.995-1.885,1.229-2.892c2.334-10.143,4.61-20.294,6.901-30.445c0.08-0.363,0.042-0.736,0.084-1.362
		c-2.698,1.778-5.148,3.267-5.53,6.786c-0.296,2.831-1.11,5.622-1.782,8.401c-0.539,2.198-2.16,3.324-3.892,2.868
		c-1.82-0.488-2.69-2.133-2.218-4.318c0.887-4.055,1.715-8.125,2.776-12.142c0.311-1.211,1.104-2.512,2.052-3.331
		c3.962-3.382,8.046-6.621,12.115-9.884c5.009-3.999,9.659-2.949,12.562,2.782c0.397,0.798,0.879,1.589,1.197,2.43
		c2.628,7.028,6.905,12.605,13.747,16.009c0.266,0.125,0.509,0.325,0.735,0.513c1.483,1.221,1.965,2.757,0.931,4.394
		c-1.081,1.691-2.796,1.824-4.373,0.784c-3.477-2.269-6.891-4.629-10.241-7.079c-0.743-0.533-1.197-1.524-1.683-2.363
		c-0.61-1.07-1.122-2.201-1.683-3.299C56.4,39.563,56.235,39.606,56.07,39.638z"/>
	<path style="fill-rule:evenodd;clip-rule:evenodd;fill:#333333;" d="M53.103,7.5c3.877,0.005,6.874,2.99,6.909,6.871
		c0.022,3.973-3.063,7.091-6.97,7.06c-3.814-0.045-6.944-3.134-6.971-6.899C46.03,10.634,49.175,7.495,53.103,7.5z"/>
</g>
</svg>
