<?xml version="1.0" encoding="utf-8"?>
<!-- Generator: Adobe Illustrator 16.0.0, SVG Export Plug-In . SVG Version: 6.00 Build 0)  -->
<!DOCTYPE svg PUBLIC "-//W3C//DTD SVG 1.1//EN" "http://www.w3.org/Graphics/SVG/1.1/DTD/svg11.dtd">
<svg version="1.1" id="Layer_1" xmlns="http://www.w3.org/2000/svg" xmlns:xlink="http://www.w3.org/1999/xlink" x="0px" y="0px"
	 width="100px" height="100px" viewBox="0 0 100 100" style="enable-background:new 0 0 100 100;" xml:space="preserve">
<g>
	<path style="fill-rule:evenodd;clip-rule:evenodd;fill:#333333;" d="M43.541,92.543c-2.329-0.787-3.167-2.42-3.165-4.863
		c0.065-17.947,0.034-35.91,0.034-53.861c0-0.439,0-0.877,0-1.398c-0.867,0-1.691,0-2.643,0c0,0.506,0,0.975,0,1.439
		c-0.001,6.512,0.005,13.018-0.007,19.525c-0.002,1.373-0.895,2.549-2.04,2.744c-1.424,0.248-2.657-0.365-3.08-1.658
		c-0.204-0.59-0.26-1.252-0.262-1.885c-0.022-6.789-0.036-13.576-0.011-20.365c0.018-4.779,2.521-8.154,7.011-9.164
		c1.538-0.348,3.193-0.174,4.796-0.164c0.197,0.002,0.499,0.447,0.594,0.736c0.896,2.762,1.754,5.539,2.633,8.318
		c0.077,0.246,0.19,0.48,0.379,0.984c0.316-2.26,0.57-4.219,0.85-6.174c0.107-0.709,0.155-1.527,1.465-1.096
		c0.162,1.094,0.319,2.301,0.495,3.506c0.168,1.168,0.36,2.33,0.596,3.842c0.323-0.979,0.565-1.666,0.777-2.352
		c0.711-2.283,1.47-4.547,2.116-6.848c0.219-0.797,0.586-1,1.333-0.947c1.361,0.096,2.77-0.098,4.073,0.193
		c4.413,1.004,7.116,4.559,7.142,9.279c0.026,6.793,0.009,13.576,0,20.367c-0.006,2.285-0.99,3.488-2.741,3.5
		c-1.648,0.008-2.738-1.197-2.739-3.109c-0.011-5.105,0-10.205,0-15.305c0-1.768,0-3.525,0-5.373c-0.854,0-1.64,0-2.598,0
		c0,0.459,0,0.924,0,1.391c0,17.916-0.036,35.834,0.03,53.744c0.011,2.41-0.746,4.07-2.986,4.992c-0.559,0-1.118,0-1.68,0
		c-2.07-0.697-3.083-2.107-3.035-4.301c0.026-0.92-0.099-1.842-0.101-2.762c-0.01-9.395-0.005-18.785-0.006-28.178
		c-0.001-0.424,0-0.844,0-1.248c-0.951,0-1.734,0-2.587,0c0,0.488,0,0.883,0,1.279c-0.002,10.072-0.063,20.143,0.024,30.219
		c0.023,2.404-0.718,4.08-2.977,4.99C44.673,92.543,44.11,92.543,43.541,92.543z"/>
	<path style="fill-rule:evenodd;clip-rule:evenodd;fill:#333333;" d="M50.293,7.457c1.962,0.498,3.741,1.268,4.928,3.061
		c1.701,2.588,1.54,6.018-0.475,8.479c-1.794,2.199-5.187,2.98-7.953,1.832c-2.808-1.17-4.511-4.109-4.199-7.244
		c0.277-2.875,2.616-5.338,5.604-5.92c0.153-0.027,0.273-0.139,0.405-0.207C49.175,7.457,49.733,7.457,50.293,7.457z"/>
	<path style="fill-rule:evenodd;clip-rule:evenodd;fill:#333333;" d="M67.646,78.799c-0.439,0.77-1.096,1.043-1.991,0.992
		c-1.272-0.084-2.559-0.041-3.843-0.012c-1.082,0.012-1.663-0.482-1.663-1.562c-0.003-5.441,0-10.891,0-16.338
		c0-1.088,0.602-1.582,1.641-1.633c0.307-0.012,0.614-0.004,1.012-0.004c0-0.883,0-1.672,0-2.557c0.725,0,1.374,0,2.154,0
		c0,0.805,0,1.621,0,2.068c1.068,0.574,1.88,1.016,2.69,1.453C67.646,67.074,67.646,72.939,67.646,78.799z"/>
	<path style="fill-rule:evenodd;clip-rule:evenodd;fill:#333333;" d="M50.929,22.934c-0.521,0.828-0.866,1.951-1.364,2.027
		c-1.42,0.209-0.725-1.293-1.411-2.027C49.096,22.934,49.813,22.934,50.929,22.934z"/>
</g>
</svg>
