<?xml version="1.0" encoding="utf-8"?>
<!-- Generator: Adobe Illustrator 16.0.0, SVG Export Plug-In . SVG Version: 6.00 Build 0)  -->
<!DOCTYPE svg PUBLIC "-//W3C//DTD SVG 1.1//EN" "http://www.w3.org/Graphics/SVG/1.1/DTD/svg11.dtd">
<svg version="1.1" id="Layer_1" xmlns="http://www.w3.org/2000/svg" xmlns:xlink="http://www.w3.org/1999/xlink" x="0px" y="0px"
	 width="100px" height="100px" viewBox="0 0 100 100" style="enable-background:new 0 0 100 100;" xml:space="preserve">
<g>
	<path style="fill:#3C3C3B;" d="M89.563,54.121C89.563,42.375,79.783,33,67.492,33h-42.61C22.703,33,21,34.401,21,36.581v52.077
		C21,90.838,22.703,92,24.882,92h42.61C69.671,92,71,90.838,71,88.658V74.905C81,73.118,89.563,64.584,89.563,54.121z M71,68.45
		V39.429c7,1.655,12.033,7.523,12.033,14.511S78,66.796,71,68.45z"/>
	<g>
		<path style="fill:#3C3C3B;" d="M39.325,17.451c1.125-2.91,1.105-6.092-0.073-8.989c-0.271-0.662-1.126-1.018-1.915-0.788
			c-0.787,0.228-1.207,0.947-0.938,1.611c0.991,2.435,0.991,5.116,0,7.553c-0.058,0.142-0.077,0.286-0.075,0.428
			c-1.125,2.909-1.105,6.092,0.073,8.988c0.214,0.526,0.799,0.856,1.426,0.856c0.162,0,0.327-0.021,0.489-0.068
			c0.787-0.227,1.207-0.948,0.938-1.61c-0.991-2.436-0.991-5.118,0-7.553C39.308,17.736,39.327,17.592,39.325,17.451z"/>
		<path style="fill:#3C3C3B;" d="M48.038,17.451c1.125-2.91,1.104-6.092-0.074-8.989c-0.27-0.662-1.125-1.018-1.914-0.788
			c-0.787,0.228-1.207,0.947-0.938,1.611c0.991,2.435,0.991,5.116,0,7.553c-0.058,0.142-0.077,0.286-0.075,0.428
			c-1.125,2.909-1.105,6.092,0.073,8.988c0.214,0.526,0.799,0.856,1.426,0.856c0.162,0,0.327-0.021,0.489-0.068
			c0.787-0.227,1.207-0.948,0.937-1.61c-0.991-2.436-0.991-5.118,0-7.553C48.021,17.736,48.04,17.592,48.038,17.451z"/>
		<path style="fill:#3C3C3B;" d="M56.675,17.879c0.059-0.143,0.078-0.287,0.076-0.428c1.124-2.91,1.104-6.092-0.074-8.989
			c-0.27-0.662-1.125-1.018-1.914-0.788c-0.787,0.228-1.207,0.947-0.938,1.611c0.991,2.435,0.991,5.116,0,7.553
			c-0.058,0.142-0.077,0.286-0.075,0.428c-1.125,2.909-1.105,6.092,0.073,8.988c0.214,0.526,0.799,0.856,1.426,0.856
			c0.162,0,0.327-0.021,0.489-0.068c0.787-0.227,1.207-0.948,0.937-1.61C55.684,22.996,55.684,20.313,56.675,17.879z"/>
	</g>
</g>
</svg>
