<?xml version="1.0" encoding="utf-8"?>
<!-- Generator: Adobe Illustrator 16.0.0, SVG Export Plug-In . SVG Version: 6.00 Build 0)  -->
<!DOCTYPE svg PUBLIC "-//W3C//DTD SVG 1.1//EN" "http://www.w3.org/Graphics/SVG/1.1/DTD/svg11.dtd">
<svg version="1.1" id="Layer_1" xmlns="http://www.w3.org/2000/svg" xmlns:xlink="http://www.w3.org/1999/xlink" x="0px" y="0px"
	 width="100px" height="100px" viewBox="0 0 100 100" style="enable-background:new 0 0 100 100;" xml:space="preserve">
<g>
	<path style="fill:#333333;" d="M74.184,63.438c0,4.911-1.795,8.959-5.385,12.143c-3.592,3.185-8.773,5.148-15.547,5.894V92.5
		h-6.758V81.779c-8.4-0.135-15.293-1.422-20.68-3.861v-10.72c2.914,1.423,6.318,2.616,10.213,3.582
		c3.895,0.965,7.385,1.465,10.467,1.499V53.277l-4.268-1.575c-5.555-2.134-9.611-4.683-12.168-7.646
		c-2.559-2.964-3.836-6.631-3.836-11c0-4.674,1.82-8.519,5.461-11.533s8.578-4.844,14.811-5.487V7.5h6.758v8.383
		c6.875,0.237,13.395,1.626,19.561,4.166l-3.709,9.298c-5.318-2.1-10.602-3.353-15.852-3.76v18.494l3.861,1.474
		c6.436,2.473,10.889,5.08,13.361,7.824C72.947,56.122,74.184,59.476,74.184,63.438z M38.162,32.954c0,1.931,0.602,3.54,1.803,4.827
		c1.203,1.287,3.379,2.557,6.529,3.811V25.79c-2.711,0.407-4.775,1.236-6.199,2.49C38.873,29.533,38.162,31.092,38.162,32.954z
		 M62.193,64.2c0-1.964-0.686-3.582-2.059-4.852c-1.371-1.271-3.666-2.498-6.883-3.684v16.207
		C59.213,70.958,62.193,68.4,62.193,64.2z"/>
</g>
</svg>
