<?xml version="1.0" encoding="utf-8"?>
<!-- Generator: Adobe Illustrator 16.0.0, SVG Export Plug-In . SVG Version: 6.00 Build 0)  -->
<!DOCTYPE svg PUBLIC "-//W3C//DTD SVG 1.1//EN" "http://www.w3.org/Graphics/SVG/1.1/DTD/svg11.dtd">
<svg version="1.1" id="Layer_1" xmlns="http://www.w3.org/2000/svg" xmlns:xlink="http://www.w3.org/1999/xlink" x="0px" y="0px"
	 width="100px" height="100px" viewBox="0 0 100 100" style="enable-background:new 0 0 100 100;" xml:space="preserve">
<path style="fill-rule:evenodd;clip-rule:evenodd;fill:#333333;" d="M88,65.744V55.129C88,51.457,84.284,48,80.615,48H52v-8.195
	c4-1.008,7.669-4.98,7.669-9.736c0-5.517-4.528-9.989-10.047-9.989c-5.517,0-10.187,4.473-10.187,9.989
	c0,4.751,3.564,8.72,7.564,9.732V48H19.389C15.72,48,12,51.457,12,55.129v10.62c-3,0.94-4.671,3.677-4.671,6.91
	c0,4.012,3.437,7.262,7.447,7.262c4.013,0,6.771-3.25,6.771-7.262c0-3.239-2.547-5.98-5.547-6.915V55.129
	C16,53.904,18.166,53,19.389,53H47v12.749c-3,0.94-4.865,3.677-4.865,6.91c0,4.012,3.338,7.262,7.348,7.262s7.415-3.25,7.415-7.262
	c0-3.239-1.897-5.98-4.897-6.915V53h28.615C81.838,53,84,53.904,84,55.129v10.62c-3,0.94-5.619,3.677-5.619,6.91
	c0,4.012,2.961,7.262,6.971,7.262c4.012,0,7.48-3.25,7.48-7.262C92.832,69.42,91,66.679,88,65.744z"/>
</svg>
