<?xml version="1.0" encoding="utf-8"?>
<!-- Generator: Adobe Illustrator 16.0.0, SVG Export Plug-In . SVG Version: 6.00 Build 0)  -->
<!DOCTYPE svg PUBLIC "-//W3C//DTD SVG 1.1//EN" "http://www.w3.org/Graphics/SVG/1.1/DTD/svg11.dtd">
<svg version="1.1" id="Layer_1" xmlns="http://www.w3.org/2000/svg" xmlns:xlink="http://www.w3.org/1999/xlink" x="0px" y="0px"
	 width="260px" height="178px" viewBox="0 0 260 178" style="enable-background:new 0 0 260 178;" xml:space="preserve">
<path style="fill:#3C3C3B;" d="M189.113,176l47.104-1.47l9.987-0.833l-0.252-1.828l0.047-0.496v-3.377l2.465,0.317l-1.355-2.452
	l-5.146-1.4c0,0-0.936-1.88-3.022-2.452c-2.088-0.573-26.603,0.364-26.603,0.364l-1.575,2.088l5.075,0.365l1.593,2.071l-0.494,1.658
	l-6.261-0.242l-0.098,1.035l-34.551,0.334l1.723,2.124l8.416,4.193H189.113z"/>
<polygon style="fill:#4D4D4D;" points="255.625,138.593 254,131 250,131 247,122 240,121 239.562,121 239.558,120.805 
	236.109,118.777 232.037,123.71 230.782,120 204,120 204,113.942 202.48,108.402 159,108.872 159,108 158.312,108 158.47,122.705 
	156,125.206 156,130.84 152,125.487 152,119.574 153.185,119.762 153.061,114.129 152,113.565 152,104.93 152.715,105.492 
	151.92,103.99 150,102.77 150,100.424 152.278,100.986 151.492,98.451 150.936,94.697 150,93.945 150,90.286 147.772,75.547 
	145.822,90.003 145,93.008 145,94.792 143.906,94.039 143,96.105 143,101.551 134,101.926 134,93.665 133.296,91.506 
	131.817,93.195 130.515,78.081 128.146,93.477 127,96.293 127,101.551 123.976,98.733 120.477,102.582 109,103.615 109,101.551 
	107.158,101.362 104,113.848 104,118.448 103.182,116.194 97.375,113.565 94.378,116.757 72.931,117.604 71.172,111.971 
	69.589,118.26 67.811,118.252 61.433,122 58.054,122 42.53,127.678 41.317,121.394 40.031,129 33.271,129 33.196,133 28,133 
	28,127.46 19.486,126.787 18.25,122 13,122 9.75,128 7,128 5.25,135 3,135 2,141.584 1,153 258,153 258,146.806 "/>
<g>
	<path style="fill-rule:evenodd;clip-rule:evenodd;fill:#3C3C3B;" d="M223.852,68.081c-0.312-0.35-0.619-0.704-0.94-1.045
		c-1.206-1.282-2.415-2.559-3.624-3.837c-0.023-0.024-0.052-0.045-0.103-0.088c-1.849,1.643-3.697,3.284-5.545,4.926
		c-0.017-0.009-0.034-0.018-0.051-0.027c0.06-0.385,0.115-0.771,0.177-1.155c0.513-3.243,1.025-6.487,1.541-9.731
		c0.593-3.734,1.189-7.468,1.783-11.202c0.04-0.254,0.066-0.512,0.124-0.762c0.016-0.067,0.119-0.121,0.191-0.169
		c0.03-0.02,0.083-0.002,0.127-0.002c4.122,0,8.244,0,12.366,0c0.084,0,0.169,0,0.279,0c0.106,0.572,0.214,1.133,0.314,1.696
		c0.493,2.714,0.985,5.432,1.479,8.146c0.507,2.801,1.013,5.602,1.52,8.403c0.271,1.492,0.543,2.985,0.816,4.478
		c0.011,0.055,0.038,0.108,0.059,0.163c-0.019,0.068-0.034,0.138-0.052,0.206c-0.064-0.066-0.123-0.138-0.193-0.199
		c-1.304-1.128-2.607-2.258-3.913-3.387c-0.531-0.46-1.063-0.917-1.649-1.424c-0.057,0.085-0.096,0.164-0.153,0.226
		c-1.062,1.134-2.127,2.265-3.188,3.399c-0.426,0.458-0.841,0.924-1.262,1.385C223.921,68.081,223.887,68.081,223.852,68.081z"/>
	<path style="fill-rule:evenodd;clip-rule:evenodd;fill:#3C3C3B;" d="M217.204,19.384c0.522,0.092,1.046,0.175,1.565,0.28
		c1.581,0.321,2.948,1.081,4.227,2.038c1.303,0.976,2.288,2.208,3.073,3.62c0.579,1.043,1.159,2.082,1.55,3.215
		c0.614,1.779,1.078,3.595,1.333,5.462c0.1,0.73,0.193,1.461,0.285,2.193c0.02,0.151,0.021,0.306,0.032,0.486
		c-3.56,0-7.1,0-10.638,0c0.082-0.949,0.174-1.903,0.245-2.857c0.106-1.425,0.01-2.837-0.5-4.183
		c-0.503-1.325-1.353-2.355-2.815-2.644c-1.439-0.282-2.736,0.03-3.629,1.293c-0.561,0.794-0.731,1.683-0.257,2.597
		c0.274,0.527,0.777,0.754,1.259,0.606c0.361-0.11,0.586-0.43,0.559-0.796c-0.029-0.414-0.282-0.701-0.683-0.744
		c-0.184-0.021-0.371-0.005-0.562-0.005c-0.063-0.71,0.551-1.483,1.337-1.649c1.391-0.293,2.604,0.382,3.094,1.72
		c0.691,1.893-0.275,4.253-2.091,5.109c-1.038,0.49-2.122,0.521-3.223,0.308c-2.758-0.533-4.281-2.338-5.026-4.926
		c-0.092-0.317-0.145-0.647-0.215-0.973c0-0.704,0-1.409,0-2.113c0.019-0.063,0.042-0.128,0.052-0.193
		c0.171-1.076,0.479-2.116,1.042-3.049c1.57-2.605,3.894-4.108,6.888-4.586c0.532-0.085,1.069-0.142,1.604-0.21
		C216.208,19.384,216.706,19.384,217.204,19.384z"/>
	<path style="fill-rule:evenodd;clip-rule:evenodd;fill:#3C3C3B;" d="M223.777,42.271c-2.638,0-5.274,0.001-7.911-0.001
		c-0.711-0.002-1.304-0.494-1.432-1.172c-0.131-0.686,0.24-1.358,0.904-1.611c0.164-0.062,0.351-0.098,0.525-0.098
		c5.239-0.006,10.479-0.009,15.717-0.009c0.85-0.001,1.434,0.466,1.559,1.234c0.141,0.855-0.509,1.645-1.377,1.656
		c-0.72,0.009-1.441,0-2.164,0C227.658,42.271,225.717,42.271,223.777,42.271L223.777,42.271z"/>
	<path style="fill-rule:evenodd;clip-rule:evenodd;fill:#3C3C3B;" d="M223.75,44.59c-2.163,0-4.326,0.001-6.488-0.002
		c-0.64,0-1.029-0.401-0.989-1.009c0.027-0.401,0.343-0.747,0.741-0.804c0.085-0.013,0.171-0.018,0.256-0.018
		c4.326-0.001,8.651,0.001,12.977-0.004c0.411,0,0.723,0.149,0.893,0.524c0.162,0.358,0.113,0.706-0.142,1.011
		c-0.189,0.227-0.44,0.304-0.733,0.303C228.093,44.588,225.922,44.59,223.75,44.59z"/>
	<path style="fill-rule:evenodd;clip-rule:evenodd;fill:#3C3C3B;" d="M223.871,37.105c2.042,0,4.085,0.002,6.127,0
		c0.526-0.001,0.925,0.394,0.925,0.927c0,0.531-0.395,0.934-0.921,0.932c-3.939-0.002-7.878-0.006-11.816-0.007
		c-0.154,0-0.309,0.007-0.464,0.007c-0.51-0.002-0.912-0.404-0.919-0.913c-0.007-0.522,0.401-0.945,0.916-0.945
		C219.77,37.105,221.821,37.105,223.871,37.105z"/>
</g>
<g>
	<g>
		<g style="enable-background:new    ;">
			<defs>
				<polygon id="SVGID_37_" style="enable-background:new    ;" points="19.995,198.378 22.055,75.826 196.929,92.43 
					177.527,173.963 				"/>
			</defs>
			<clipPath id="SVGID_2_">
				<use xlink:href="#SVGID_37_"  style="overflow:visible;"/>
			</clipPath>
			<g style="clip-path:url(#SVGID_2_);">
				<g>
					<g>
						<g>
							<path style="fill:#3FB4FF;" d="M171.922,164.964c-0.028,0.844-0.055,1.685-0.078,2.521c-0.023,0.834-0.044,1.665-0.062,2.492
								c-0.018,0.824-0.033,1.645-0.046,2.46c-0.013,0.813-0.023,1.623-0.031,2.429c0.618-0.617,1.234-1.231,1.85-1.843
								c0.614-0.61,1.228-1.218,1.839-1.823c0.611-0.604,1.221-1.206,1.829-1.806c0.607-0.6,1.214-1.196,1.819-1.791
								c-0.583-0.208-1.167-0.419-1.753-0.633c-0.589-0.215-1.179-0.432-1.771-0.651c-0.595-0.221-1.19-0.443-1.788-0.669
								C173.129,165.424,172.526,165.195,171.922,164.964"/>
							<path style="fill:#009245;" d="M164.431,161.976c-0.036,0.894-0.068,1.783-0.099,2.668c-0.029,0.883-0.056,1.761-0.08,2.635
								c-0.023,0.871-0.044,1.738-0.062,2.602c-0.019,0.86-0.035,1.716-0.049,2.569c0.648-0.639,1.295-1.274,1.94-1.907
								c0.645-0.633,1.288-1.263,1.931-1.89c0.641-0.627,1.281-1.251,1.919-1.872c0.638-0.62,1.274-1.237,1.909-1.852
								c-0.606-0.234-1.214-0.47-1.823-0.708c-0.613-0.24-1.228-0.482-1.844-0.727c-0.619-0.247-1.24-0.496-1.862-0.748
								C165.686,162.492,165.059,162.235,164.431,161.976"/>
							<path style="fill:#D41440;" d="M156.6,158.652c-0.041,0.943-0.079,1.883-0.114,2.818c-0.035,0.932-0.067,1.86-0.098,2.784
								c-0.029,0.921-0.056,1.838-0.079,2.75c-0.023,0.91-0.045,1.815-0.062,2.717c0.683-0.662,1.363-1.32,2.042-1.976
								c0.678-0.654,1.354-1.306,2.029-1.955c0.674-0.647,1.347-1.293,2.018-1.936c0.671-0.642,1.34-1.28,2.008-1.917
								c-0.634-0.26-1.269-0.523-1.905-0.789c-0.64-0.268-1.281-0.538-1.924-0.812c-0.646-0.274-1.295-0.553-1.946-0.833
								C157.914,159.224,157.258,158.939,156.6,158.652"/>
							<path style="fill:#F1861E;" d="M148.422,154.947c-0.049,0.999-0.094,1.993-0.135,2.983c-0.042,0.986-0.08,1.968-0.115,2.946
								c-0.035,0.975-0.067,1.944-0.097,2.91c-0.029,0.963-0.056,1.921-0.079,2.875c0.717-0.685,1.434-1.366,2.147-2.045
								c0.714-0.678,1.425-1.353,2.136-2.024c0.709-0.671,1.416-1.339,2.121-2.004c0.704-0.664,1.407-1.325,2.107-1.983
								c-0.66-0.288-1.323-0.581-1.987-0.877c-0.668-0.298-1.338-0.599-2.011-0.903c-0.675-0.306-1.353-0.615-2.032-0.928
								C149.795,155.584,149.109,155.267,148.422,154.947"/>
							<path style="fill:#3FB4FF;" d="M139.912,150.864c-0.054,1.058-0.105,2.111-0.154,3.159c-0.048,1.045-0.093,2.085-0.135,3.12
								c-0.042,1.032-0.08,2.059-0.116,3.08c-0.035,1.019-0.066,2.031-0.095,3.04c0.757-0.709,1.512-1.414,2.265-2.117
								c0.751-0.701,1.501-1.399,2.249-2.095c0.747-0.693,1.492-1.385,2.235-2.072c0.741-0.687,1.481-1.37,2.22-2.051
								c-0.691-0.321-1.385-0.647-2.08-0.976c-0.699-0.331-1.401-0.665-2.104-1.003c-0.708-0.34-1.417-0.683-2.129-1.029
								C141.351,151.572,140.632,151.22,139.912,150.864"/>
							<path style="fill:#009245;" d="M130.936,146.306c-0.064,1.122-0.124,2.238-0.179,3.35c-0.056,1.106-0.108,2.209-0.156,3.306
								c-0.048,1.092-0.092,2.18-0.133,3.262c-0.041,1.079-0.078,2.152-0.112,3.221c0.797-0.733,1.594-1.464,2.388-2.191
								c0.793-0.726,1.584-1.448,2.373-2.168c0.788-0.718,1.573-1.433,2.356-2.145c0.782-0.71,1.562-1.417,2.34-2.121
								c-0.725-0.357-1.452-0.719-2.181-1.084c-0.733-0.367-1.469-0.738-2.206-1.113c-0.742-0.376-1.485-0.757-2.232-1.142
								C132.443,147.092,131.691,146.701,130.936,146.306"/>
							<path style="fill:#D41440;" d="M121.495,141.269c-0.071,1.188-0.138,2.371-0.201,3.549c-0.062,1.172-0.122,2.34-0.176,3.501
								c-0.054,1.157-0.105,2.31-0.152,3.456c-0.047,1.142-0.09,2.279-0.13,3.411c0.844-0.761,1.686-1.517,2.525-2.27
								c0.837-0.752,1.673-1.5,2.506-2.244c0.832-0.743,1.661-1.483,2.487-2.22c0.825-0.735,1.648-1.467,2.469-2.195
								c-0.761-0.396-1.524-0.795-2.29-1.199c-0.77-0.405-1.543-0.815-2.318-1.229c-0.78-0.417-1.562-0.838-2.346-1.263
								C123.08,142.138,122.289,141.705,121.495,141.269"/>
							<path style="fill:#F1861E;" d="M111.554,135.693c-0.079,1.258-0.153,2.512-0.223,3.76c-0.07,1.244-0.136,2.482-0.197,3.715
								c-0.062,1.229-0.119,2.451-0.172,3.669c-0.053,1.213-0.103,2.421-0.148,3.622c0.893-0.786,1.782-1.57,2.67-2.352
								c0.886-0.778,1.771-1.555,2.652-2.326c0.88-0.771,1.758-1.538,2.634-2.301c0.874-0.762,1.745-1.52,2.614-2.273
								c-0.801-0.438-1.605-0.88-2.411-1.326c-0.811-0.449-1.625-0.903-2.44-1.362c-0.821-0.461-1.646-0.926-2.473-1.396
								C113.227,136.65,112.392,136.174,111.554,135.693"/>
							<path style="fill:#3FB4FF;" d="M101.143,129.559c-0.089,1.336-0.173,2.666-0.253,3.991c-0.079,1.32-0.154,2.635-0.224,3.943
								c-0.07,1.304-0.135,2.602-0.196,3.894c-0.06,1.287-0.116,2.568-0.167,3.844c0.946-0.815,1.89-1.627,2.831-2.435
								c0.939-0.806,1.875-1.607,2.81-2.406c0.932-0.797,1.862-1.59,2.789-2.379c0.926-0.787,1.849-1.571,2.77-2.351
								c-0.844-0.485-1.689-0.976-2.539-1.47c-0.854-0.497-1.711-0.999-2.571-1.505c-0.866-0.51-1.734-1.024-2.606-1.544
								C102.908,130.619,102.027,130.092,101.143,129.559"/>
							<path style="fill:#009245;" d="M90.058,122.732c-0.097,1.42-0.19,2.834-0.278,4.243c-0.088,1.402-0.171,2.8-0.249,4.191
								c-0.078,1.386-0.151,2.765-0.218,4.139c-0.068,1.368-0.13,2.729-0.187,4.085c1.004-0.846,2.005-1.687,3.004-2.523
								c0.997-0.835,1.991-1.666,2.983-2.493c0.99-0.825,1.977-1.646,2.962-2.463c0.983-0.814,1.963-1.626,2.941-2.433
								c-0.891-0.535-1.785-1.075-2.683-1.621c-0.903-0.549-1.81-1.104-2.72-1.664c-0.916-0.564-1.835-1.134-2.758-1.709
								C91.925,123.906,90.993,123.321,90.058,122.732"/>
							<path style="fill:#D41440;" d="M78.308,115.18c-0.108,1.513-0.21,3.019-0.308,4.518c-0.097,1.494-0.188,2.98-0.274,4.462
								c-0.086,1.475-0.167,2.942-0.242,4.404c-0.075,1.456-0.145,2.905-0.21,4.348c1.069-0.876,2.136-1.748,3.199-2.615
								c1.061-0.865,2.12-1.726,3.175-2.581c1.053-0.854,2.104-1.703,3.152-2.547c1.045-0.843,2.088-1.681,3.128-2.513
								c-0.945-0.595-1.893-1.194-2.845-1.799c-0.958-0.609-1.919-1.224-2.884-1.845c-0.971-0.625-1.946-1.255-2.925-1.892
								C80.289,116.479,79.3,115.833,78.308,115.18"/>
							<path style="fill:#F1861E;" d="M65.819,106.819c-0.116,1.609-0.227,3.213-0.333,4.81c-0.105,1.591-0.206,3.176-0.3,4.753
								c-0.095,1.571-0.184,3.136-0.268,4.693c-0.083,1.551-0.162,3.096-0.234,4.633c1.141-0.908,2.278-1.811,3.413-2.709
								c1.132-0.896,2.26-1.785,3.385-2.671c1.123-0.884,2.242-1.763,3.357-2.637c1.113-0.873,2.223-1.74,3.329-2.604
								c-1-0.658-2.005-1.321-3.014-1.99c-1.016-0.673-2.037-1.353-3.062-2.039c-1.032-0.69-2.069-1.387-3.111-2.091
								C67.932,108.258,66.878,107.542,65.819,106.819"/>
							<path style="fill:#3FB4FF;" d="M52.607,97.614c-0.128,1.718-0.25,3.429-0.366,5.132c-0.116,1.696-0.226,3.386-0.331,5.067
								c-0.104,1.675-0.202,3.342-0.295,5.002c-0.092,1.652-0.179,3.298-0.259,4.935c1.219-0.938,2.435-1.872,3.647-2.8
								c1.209-0.926,2.415-1.847,3.617-2.763c1.199-0.913,2.394-1.821,3.585-2.725c1.188-0.901,2.374-1.797,3.554-2.688
								c-1.064-0.729-2.133-1.463-3.207-2.205c-1.081-0.747-2.168-1.501-3.26-2.261c-1.1-0.767-2.204-1.539-3.314-2.318
								C54.86,99.205,53.736,98.413,52.607,97.614"/>
							<path style="fill:#009245;" d="M38.406,87.348c-0.142,1.834-0.278,3.661-0.407,5.48c-0.129,1.812-0.252,3.617-0.369,5.414
								c-0.116,1.789-0.225,3.569-0.328,5.343c-0.102,1.765-0.198,3.521-0.286,5.269c1.31-0.972,2.615-1.938,3.915-2.898
								c1.297-0.957,2.59-1.909,3.878-2.855c1.285-0.944,2.565-1.883,3.841-2.816c1.272-0.931,2.541-1.856,3.804-2.778
								c-1.138-0.808-2.281-1.622-3.428-2.444c-1.156-0.828-2.316-1.663-3.482-2.506c-1.174-0.85-2.354-1.706-3.539-2.57
								C40.812,89.113,39.612,88.235,38.406,87.348"/>
							<path style="fill:#D41440;" d="M23.174,75.933c-0.154,1.965-0.302,3.921-0.442,5.868c-0.14,1.939-0.273,3.869-0.399,5.791
								c-0.126,1.913-0.245,3.818-0.355,5.715c-0.111,1.888-0.214,3.768-0.311,5.64c1.404-1.005,2.804-2.003,4.199-2.995
								c1.392-0.99,2.779-1.974,4.162-2.951c1.379-0.975,2.754-1.944,4.125-2.907c1.367-0.961,2.729-1.915,4.088-2.864
								c-1.219-0.898-2.443-1.804-3.672-2.718c-1.239-0.92-2.482-1.849-3.732-2.786c-1.259-0.943-2.525-1.896-3.796-2.858
								C25.757,77.897,24.469,76.92,23.174,75.933"/>
						</g>
					</g>
				</g>
			</g>
		</g>
	</g>
</g>
<path style="fill:#3C3C3B;" d="M13,166.598c0-1.466,82.966-1.043,91-0.004c-7.475,2.442-91,0.984-91,0.258V166.598z"/>
<path style="fill:#3C3C3B;" d="M52,174.087c13.775-1.012,27.631-0.911,41.438-0.551c16.505,0.66,33.109-1.021,49.562,0.547
	c-13.887,2.985-30.821,0.03-45.286,0.549c-15.205,0.605-30.534,0.74-45.714-0.377V174.087z"/>
<path style="fill:#3C3C3B;" d="M50,161.875c11.47-1.085,23.007-0.978,34.502-0.591c13.743,0.708,27.568-1.095,41.268,0.586
	c-11.563,3.201-25.663,0.033-37.707,0.589c-12.66,0.649-25.424,0.794-38.064-0.404V161.875z"/>
</svg>
