<?xml version="1.0" encoding="utf-8"?>
<!-- Generator: Adobe Illustrator 16.0.0, SVG Export Plug-In . SVG Version: 6.00 Build 0)  -->
<!DOCTYPE svg PUBLIC "-//W3C//DTD SVG 1.1//EN" "http://www.w3.org/Graphics/SVG/1.1/DTD/svg11.dtd">
<svg version="1.1" id="Layer_1" xmlns="http://www.w3.org/2000/svg" xmlns:xlink="http://www.w3.org/1999/xlink" x="0px" y="0px"
	 width="260px" height="178px" viewBox="0 0 260 178" style="enable-background:new 0 0 260 178;" xml:space="preserve">
<polygon style="fill-rule:evenodd;clip-rule:evenodd;fill:#3C3C3B;" points="205,45 205,109 169.348,109 124,71.951 124,109 
	123.883,109 78,71.514 78,109 77.883,109 32,71.514 32,109 32,147.351 32,173 228,173 228,148 228,109 228,45 "/>
<g>
	<g>
		<path style="fill:#3FB4FF;stroke:#F2F2F2;stroke-width:2;stroke-miterlimit:10;" d="M93.381,141.128
			c0,4.267-3.455,7.723-7.722,7.723c-4.264,0-7.724-3.456-7.724-7.723c0-4.269,3.46-7.725,7.724-7.725
			C89.926,133.403,93.381,136.859,93.381,141.128z"/>
	</g>
	<g>
		<path style="fill:#009245;stroke:#F2F2F2;stroke-width:2;stroke-miterlimit:10;" d="M122.942,141.128
			c0,4.267-3.454,7.723-7.722,7.723c-4.264,0-7.724-3.456-7.724-7.723c0-4.269,3.46-7.725,7.724-7.725
			C119.488,133.403,122.942,136.859,122.942,141.128z"/>
	</g>
	<g>
		<path style="fill:#D41440;stroke:#F2F2F2;stroke-width:2;stroke-miterlimit:10;" d="M152.504,141.128
			c0,4.267-3.454,7.723-7.722,7.723c-4.265,0-7.724-3.456-7.724-7.723c0-4.269,3.459-7.725,7.724-7.725
			C149.05,133.403,152.504,136.859,152.504,141.128z"/>
	</g>
	<g>
		<path style="fill:#F1861E;stroke:#F2F2F2;stroke-width:2;stroke-miterlimit:10;" d="M182.065,141.128
			c0,4.267-3.455,7.723-7.722,7.723c-4.264,0-7.724-3.456-7.724-7.723c0-4.269,3.46-7.725,7.724-7.725
			C178.611,133.403,182.065,136.859,182.065,141.128z"/>
	</g>
</g>
<path style="fill:#3C3C3B;" d="M209.44,25.915c-2.177-3.192-5.652-4.799-8.646-4.302C198.291,19.433,194.071,18,189.286,18
	c-0.003,0-0.007,0-0.011,0c0.001-0.042,0.011-0.083,0.011-0.125c0-4.626-6.211-8.375-13.872-8.375c-2.857,0-5.512,0.522-7.719,1.417
	c-2.484-2.119-5.745-3.417-9.33-3.417c-2.788,0-5.38,0.788-7.566,2.132c-3.466-2.529-8.508-4.132-14.141-4.132
	c-7.757,0-14.415,3.025-17.335,7.352c-2.76-3.162-8.639-5.352-15.469-5.352c-9.474,0-17.154,4.203-17.154,9.389
	c0,4.628,6.126,8.465,14.179,9.237c-0.44,1.317-0.679,2.692-0.679,4.108c0,9.519,10.547,17.234,23.556,17.234
	c7.194,0,13.631-2.362,17.952-6.082c4.595,3.997,11.901,6.582,20.13,6.582c12.416,0,22.725-5.883,24.795-13.622
	c0.859,0.098,1.744,0.153,2.651,0.153c2.811,0,5.422-0.498,7.61-1.348c0.173,0.315,0.357,0.627,0.565,0.933
	c2.801,4.106,7.753,5.606,11.061,3.351C211.83,35.18,212.241,30.021,209.44,25.915z"/>
</svg>
