<?xml version="1.0" encoding="utf-8"?>
<!-- Generator: Adobe Illustrator 16.0.0, SVG Export Plug-In . SVG Version: 6.00 Build 0)  -->
<!DOCTYPE svg PUBLIC "-//W3C//DTD SVG 1.1//EN" "http://www.w3.org/Graphics/SVG/1.1/DTD/svg11.dtd">
<svg version="1.1" id="Layer_1" xmlns="http://www.w3.org/2000/svg" xmlns:xlink="http://www.w3.org/1999/xlink" x="0px" y="0px"
	 width="260px" height="172.001px" viewBox="0 0 260 172.001" style="enable-background:new 0 0 260 172.001;" xml:space="preserve"
	>
<g>
	<g>
		<circle style="fill:#3FB4FF;stroke:#3FB4FF;stroke-miterlimit:10;" cx="15.12" cy="49.54" r="3.852"/>
	</g>
	<g>
		<g>
			<path style="fill:#3C3C3B;" d="M195.876,71.832c-0.53-0.63-0.839-1.408-0.953-2.3c-3.138,3.132-4.941,5.8-4.279,6.582
				c0.651,0.779,3.545-0.51,7.135-3.018C196.994,72.821,196.354,72.399,195.876,71.832z"/>
			<path style="fill:#3C3C3B;" d="M241.859,33.2c-1.864,0.11-7.361,0.597-13.66,2.61c-4.725,1.51-9.895,3.88-14.324,7.6
				c-12.204,10.254-20.56,23.738-17.192,27.745c0.596,0.707,1.559,1.125,2.867,1.238c5.937,0.517,17.729-5.239,27.426-13.385
				c4.344-3.652,7.526-8.225,9.82-12.538C239.965,40.508,241.423,35.042,241.859,33.2z"/>
		</g>
		<circle style="fill:#F2F2F2;" cx="225.268" cy="47.025" r="4.611"/>
		<g>
			<path style="fill:#3C3C3B;" d="M206.886,83.953c-5.252,4.413-11.054,6.157-12.957,3.893c3.415-4.91,2.181-8.826,7.435-13.241
				c8.481-0.954,14.104-5.243,14.104-5.243S212.141,79.538,206.886,83.953z"/>
			<g>
				<path style="fill:#3C3C3B;" d="M185.836,58.898c-5.256,4.412-7.972,9.825-6.068,12.091c5.426-2.52,9.07-0.628,14.325-5.042
					c2.402-8.188,7.598-12.987,7.598-12.987S191.09,54.481,185.836,58.898z"/>
			</g>
		</g>
	</g>
	<g>
		<path style="fill-rule:evenodd;clip-rule:evenodd;fill:#3C3C3B;" d="M137.384,80.797c0.732,1.024,1.464,2.051,2.195,3.078
			c0.156-0.057,0.311-0.112,0.465-0.168c-0.055-0.711-0.112-1.417-0.182-2.276c-0.473,0.212-0.758,0.34-1.126,0.505
			c-0.636-1.412-1.239-2.752-1.983-4.409c0.806,0.362,1.382,0.618,2.061,0.922c0.447-0.657,0.785-0.795,1.471,0.139
			c3.602,4.924,5.667,10.446,7.3,16.292c3.243,11.625,2.148,22.872-2.184,33.924c-3.297,8.414-8.517,15.52-15.378,21.404
			c-0.353,0.302-0.932,0.332-1.387,0.529c-0.424,0.182-0.902,0.337-1.222,0.646c-0.869,0.837-1.537,1.934-2.508,2.603
			c-25.175,17.322-59.166,10.265-75.882-13.937c-7.007-10.144-9.752-21.475-10.08-33.667c-0.166-6.239,1.698-11.845,4.169-17.285
			c0.918-2.014,3.117-3.459,4.792-5.1c0.254-0.248,0.848-0.147,1.291-0.209c-0.321-1.116-0.756-1.312-1.708-0.521
			c-1.045,0.868-2.005,1.842-3.15,2.648c1.895-5.148,5.049-9.49,8.678-13.479c8.369-9.197,18.68-15.099,30.881-17.512
			c23.374-4.621,44.488,6.932,53.665,19.973c-2.144-1.477-2.993-4.624-6.469-4.741c0.733,0.884,1.375,1.658,2.005,2.417
			c0.267-0.193,0.335-0.218,0.339-0.251c0.023-0.144,0.03-0.292,0.045-0.498c0.319,0.265,0.623,0.518,1.017,0.845
			c-0.803,0.478-1.431,0.729-2.375,0.188c-1.256-0.718-2.672-1.157-4.017-1.713c-0.019-0.418,0.121-1.083-0.086-1.218
			c-0.833-0.54-1.769-0.917-2.802-1.42c0.157,1.943,1.884,1.719,2.715,2.55c-0.239,0.061-0.479,0.119-0.716,0.181
			c0.238,0.292,0.434,0.796,0.717,0.851c2.179,0.423,3.744,1.939,5.565,2.994c0.257,0.148,0.647,0.067,0.977,0.086
			c1.271,0.064,2.417,0.378,3.14,1.528c-0.683,0.201-1.378,0.406-2.057,0.606c0.455,1.014,0.839,1.87,1.222,2.723
			c-0.657-0.517-1.312-1.034-1.968-1.551c-1.042-0.813-2.073-1.646-3.129-2.443c-1.004-0.759-1.973-1.592-3.065-2.194
			c-1.507-0.829-3.073-1.619-4.708-2.112c-0.537-0.162-1.369,0.651-2.351,1.169c3.827,1.806,6.026,4.688,7.712,8.053
			c0.171,0.341,0.568,0.621,0.927,0.792c0.249,0.123,0.608,0.388,0.603,0.48c2.475,1.328,4.86,2.61,7.166,3.848
			c0.318-0.317,0.698-0.695,1.247-1.243c-0.016,0.523-0.024,0.888-0.031,1.25c-0.207,0.498-0.414,0.997-0.64,1.546
			c1.096,2.062,2.232,4.2,3.346,6.295c-0.098,0.008-0.397,0.036-0.866,0.081c0.412,0.507,0.711,0.88,1.073,1.329
			c0.243-0.309,0.433-0.557,0.679-0.87c0.776,0.64,1.635,1.143,2.205,1.87c0.583,0.742,0.886,1.702,1.312,2.566
			c0.142-0.07,0.284-0.138,0.427-0.208c-0.456-1.284-0.9-2.572-1.378-3.847c-0.061-0.156-0.28-0.322-0.45-0.359
			c-2-0.414-2.504-2.02-3.167-3.648c-0.674-1.655-1.687-3.173-2.55-4.753c0.278-0.16,0.81-0.374,0.789-0.471
			c-0.104-0.478-0.234-1.179-0.572-1.33C137.852,83.568,137.041,82.543,137.384,80.797z M122.38,67.109
			c1.202,0.311,2.404,0.621,3.607,0.931c0.07-0.227,0.139-0.45,0.207-0.676c-1.292-0.581-2.583-1.164-4.239-1.911
			c0.251,0.875,0.369,1.28,0.486,1.685c-0.953-0.549-1.909-1.091-2.855-1.648c-0.414-0.241-0.815-0.506-1.214-0.773
			c-0.689-0.457-1.377-0.918-2.053-1.396c-0.301-0.213-0.611-0.434-0.843-0.712c-0.585-0.695-1.128-1.428-1.686-2.145
			c-0.055,0.15-0.114,0.3-0.17,0.448c-0.567,0.073-1.313,0.41-1.668,0.171c-1.201-0.812-2.503-1.654-3.329-2.8
			c-1.749-2.428-4.623-2.14-6.932-3.144c-1.228-0.536-2.827-0.228-4.258-0.279c-0.366-0.013-0.733,0.058-1.1,0.087
			c1.348,0.413,2.711,0.365,3.987,0.675c1.269,0.308,2.417,1.262,3.679,1.419c2.313,0.287,3.714,1.933,5.448,3.092
			c0.225,0.15,0.52,0.639,0.47,0.696c-1.196,1.352,0.563,1.597,0.714,2.523c0.745-0.756,3.476-0.978,4.001-0.43
			c0.125,0.129,0.16,0.428,0.113,0.619c-0.491,2.095,0.345,3.079,2.555,3.24c1.287,0.093,2.555,0.442,3.824,0.699
			c0.504,0.099,0.997,0.264,1.62,0.435C122.577,67.547,122.479,67.327,122.38,67.109z M120.116,88.106
			c0.268-0.575,0.536-1.149,0.804-1.723c-0.821-0.324-1.621-0.746-2.473-0.923c-0.374-0.078-0.855,0.343-1.286,0.536
			c0.009,0.219,0.019,0.438,0.027,0.658c1,0.492,1.996,0.987,2.995,1.479c-0.658,0.105-1.32,0.316-1.973,0.296
			c-1.417-0.042-1.128,0.474-0.554,1.287c0.348,0.49,0.521,1.105,0.771,1.663c-0.134,0.075-0.267,0.15-0.402,0.223
			c-0.696-0.867-1.394-1.736-2.252-2.804c-0.179,0.571-0.382,1.034-0.465,1.518c-0.214,1.208-1.186,1.307-2.095,1.426
			c-0.32,0.043-0.898-0.122-0.982-0.34c-0.338-0.869-0.604-1.781-0.755-2.701c-0.301-1.849-0.293-1.843-2.201-1.515
			c-0.85,0.149-1.779-0.056-2.591,0.183c-1.312,0.386-2.098,1.303-1.583,2.975c-0.532-0.155-0.77-0.198-0.984-0.294
			c-1.868-0.818-3.553-2.246-5.859-1.54c-0.354,0.107-1.058-0.236-1.304-0.582c-1.47-2.063-3.771-2.145-5.917-2.638
			c-1.372-0.315-2.625-0.564-3.813,0.651c-0.483,0.494-1.451,0.568-2.223,0.716c-1.117,0.211-2.277,0.232-3.377,0.496
			c-0.559,0.134-1.109,0.545-1.519,0.971c-0.492,0.512-0.748,1.261-1.254,1.753c-1.754,1.712-2.792,3.802-3.574,6.089
			c-0.553,1.624-0.421,3.063,0.468,4.539c0.551,0.914,0.788,2.01,1.29,2.961c0.5,0.944,1.124,1.829,1.75,2.698
			c0.486,0.677,1.122,1.25,1.56,1.952c0.192,0.308,0.233,1.045,0.033,1.207c-1.426,1.154-0.945,2.309-0.164,3.535
			c0.494,0.776,0.474,1.571-0.418,1.986c-0.752,0.35-1.642,0.722-2.417,0.63c-1.601-0.188-2.208,0.821-2.571,1.937
			c-0.928,2.828-3.041,4.562-5.332,6.158c-0.278,0.195-0.759,0.249-1.103,0.172c-3.486-0.779-4.336-0.402-6.167,2.614
			c-0.413,0.677-1.077,1.206-1.651,1.776c-0.698,0.69-1.494,1.295-2.116,2.046c-0.618,0.749-0.931,1.782-1.625,2.42
			c-1.113,1.021-1.215,1.812-0.182,2.862c0.721,0.731,1.364,1.571,1.901,2.447c1.618,2.638,4.281,3.504,7.008,4.297
			c0.661,0.193,1.467,0.255,1.926,0.681c0.838,0.782,1.813,0.943,2.568,0.386c1.367-1.012,2.37-0.322,3.476,0.324
			c0.685,0.4,1.377,0.785,2.072,1.173c2.138,1.187,4.243,0.755,6.143-0.796c1.201-0.979,2.76-2.091,4.174-2.113
			c2.635-0.041,5.404,0.307,7.894,1.15c3.5,1.188,6.828,0.776,10.227,0.019c0.77-0.173,1.473-0.637,2.335-1.024
			c-0.656-0.461-1.135-0.784-1.597-1.129c-0.474-0.354-0.94-0.718-1.398-1.095c-1.424-1.174-1.364-2.145,0.179-2.984l-0.053-0.022
			c0.118,0.411,0.108,0.966,0.379,1.198c0.513,0.444,1.157,0.771,1.797,1.026c1.732,0.69,3.438,1.362,5.295,1.826
			c2.599,0.649,4.797,0.233,7.075-0.645c0.361-0.139,0.599-0.872,0.699-1.371c0.164-0.829,0.168-1.692,0.244-2.573
			c-0.847,0-2.107,0.384-2.537-0.898c0.751-1.866,1.435-3.567,2.121-5.268c0.249,0.05,0.496,0.102,0.744,0.152
			c-0.038,0.552,0.03,1.137-0.134,1.65c-0.831,2.615-0.792,2.893,1.006,4.243c-0.881,0.942-0.492,1.752,0.361,2.5
			c0.587,0.513,1.091,1.124,1.706,1.596c0.609,0.473,0.87,0.903,0.536,1.698c-0.458,1.087-0.774,2.233-1.204,3.505
			c0.572-0.05,0.928-0.084,1.598-0.145c-2.766,2.936-5.372,5.702-7.981,8.468c10.026-4.34,17.844-11.239,23.174-20.648
			c5.314-9.381,7.435-19.59,6.092-30.457c-0.205,0.32-0.411,0.642-0.624,0.974c-0.305-0.335-0.588-0.647-1.015-1.118
			c-0.202,0.99-0.366,1.785-0.477,2.334c-1.378-0.622-2.729-1.232-4.192-1.895c0.062-0.278,0.167-0.76,0.27-1.241
			c-0.063-0.028-0.131-0.055-0.196-0.081c-0.244,0.306-0.49,0.612-0.908,1.133c-0.037-1.056-0.01-1.847-0.104-2.623
			c-0.105-0.879-0.398-1.74-0.473-2.62c-0.195-2.282-1.014-3.16-3.241-3.78c-1.586-0.441-3.182-0.99-4.617-1.781
			c-0.997-0.55-1.71-0.583-2.551,0.078c-0.869,0.681-1.376,1.438-0.657,2.31c-0.85,0.257-1.684,0.509-2.394,0.723
			c-1.082-0.881-2.138-1.74-3.161-2.573c0.181-0.372,0.332-0.846,0.612-1.228c0.514-0.698,1.093-1.887,1.665-1.899
			c1.46-0.032,1.241-1.058,1.699-1.937c-0.629-0.221-1.351-0.726-1.677-0.54c-0.783,0.447-1.383,1.219-2.089,1.888
			C120.269,88.562,120.196,88.333,120.116,88.106z M49.209,84.729c0.107,0.229,0.214,0.458,0.319,0.688
			c1.269-0.57,2.739-0.903,3.762-1.768c1.546-1.305,3.119-1.41,5.001-1.302c0.963,0.058,2.357-0.541,2.898-1.309
			c1.469-2.078,2.923-4.265,2.905-7.012c-0.001-0.243,0.242-0.486,0.368-0.732c0.427-0.846,0.92-1.668,1.267-2.546
			c0.33-0.84,0.452-1.561,1.646-1.837c2.084-0.479,3.738-1.822,4.806-3.716c1.116-1.976,2.734-3.283,4.82-4.111
			c0.419-0.165,0.715-0.644,1.065-0.98c-0.112-0.115-0.225-0.233-0.341-0.348c-2.314,0.677-4.117,2.077-5.536,4.034
			c-0.313,0.43-0.564,1.063-0.988,1.226c-2.756,1.07-5.044,2.771-7.291,4.673c-4.417,3.739-8.352,7.828-11.162,12.938
			c-0.296,0.535-1.013,0.875-1.591,1.21C50.542,84.195,49.862,84.437,49.209,84.729z M83.971,150.53
			c-1.725-0.8-3.377-1.587-5.052-2.322c-0.344-0.15-0.776-0.145-1.165-0.129c-1.25,0.051-2.521,0.028-3.74,0.258
			c-0.73,0.138-1.381,0.696-2.068,1.066c0.567,0.483,1.126,0.976,1.709,1.443c0.101,0.081,0.284,0.064,0.432,0.078
			c1.575,0.156,3.154,0.466,4.724,0.424C80.566,151.3,82.458,151.729,83.971,150.53z M131.409,71.942
			c0.097-0.081,0.191-0.161,0.285-0.243c-1.266-2.368-2.018-5.152-4.559-6.583c-2.736-1.543-5.625-2.816-8.456-4.188
			c-0.119-0.057-0.33,0.08-0.605,0.153c1.234,0.875,2.241,1.991,3.477,2.387c2.78,0.889,5.302,2.056,7.211,4.324
			c0.074,0.091,0.051,0.259,0.074,0.388c-0.38-0.002-0.717-0.003-1.019-0.006C129.056,69.476,130.232,70.709,131.409,71.942z
			 M125.554,82.886c0.857,0.446,1.496,0.773,2.134,1.104c0.014-0.662,0.211-1.397-0.014-1.965c-0.169-0.432-0.876-0.648-1.345-0.96
			C126.104,81.597,125.876,82.128,125.554,82.886z M113.982,65.778c0.038-0.148,0.077-0.296,0.115-0.446
			c-0.495-0.588-0.995-1.178-1.569-1.858c-0.679,0.882-1.178,1.53-1.871,2.429C111.902,65.855,112.944,65.818,113.982,65.778z
			 M142.948,99.16c-0.067-0.182-0.133-0.363-0.199-0.546c-0.362,0.087-0.957,0.072-1.045,0.278
			c-0.497,1.117-2.163,1.887-1.101,3.711C141.234,101.219,140.875,99.375,142.948,99.16z M77.78,59.343
			c1.215-0.689,2.215-1.259,3.27-1.856C79.916,56.574,78.32,57.47,77.78,59.343z M148.295,101.08
			c0.191-0.058,0.383-0.115,0.574-0.173c-0.44-1.142-0.88-2.285-1.407-3.655C146.239,99.159,148.21,99.834,148.295,101.08z"/>
		<path style="fill-rule:evenodd;clip-rule:evenodd;fill:#3C3C3B;" d="M104.935,91.444c0.713,0.826,1.392,1.685,2.16,2.45
			c0.274,0.271,0.859,0.535,1.159,0.424c1.294-0.481,2.037,0.417,3.054,0.849c1.439,0.61,2.333,1.454,3.307,2.654
			c0.875,1.082,1.345,1.662,0.626,2.975c-0.534,0.976-0.675,2.162-1.044,3.236c-0.126,0.369-0.41,0.679-0.623,1.014
			c-0.313-0.253-0.678-0.462-0.93-0.767c-0.266-0.323-0.425-0.733-1.025-1.125c-0.152,0.838-0.305,1.675-0.491,2.689
			c1.315,0.094,2.423,0.175,3.532,0.253c0.053-0.145,0.106-0.288,0.161-0.435c0.024,0.342,0.05,0.683,0.092,1.289
			c1.681-1.834,0.158-4.839,2.716-6.249c-0.262,1.859-0.252,3.629-0.815,5.189c-0.475,1.314-1.645,2.374-2.453,3.581
			c-0.313,0.47-0.481,1.037-0.76,1.661c0.901-0.074,1.502-0.123,2.13-0.176c0.245-0.422,0.514-0.884,0.776-1.331
			c1.758,0.421,1.848,0.688,0.699,1.916c-1.358,1.45-1.415,2.599-0.428,4.546c0.171,0.334-0.197,0.943-0.325,1.422
			c-0.097,0.354-0.208,0.708-0.312,1.059c0.333-0.029,0.668-0.064,1.003-0.091c0.378-0.026,0.758-0.047,1.136-0.07
			c-0.106,0.316-0.125,0.718-0.335,0.936c-0.411,0.419-0.904,0.774-1.406,1.088c-1.196,0.745-2.278,0.612-2.886-0.637
			c-1.127-2.313-2.764-4.477-2.385-7.326c0.147-1.105-0.693-1.577-1.714-1.578c-1.883-0.002-2.091-0.173-1.906-2.006
			c0.082-0.82,0.364-1.626,0.394-2.446c0.031-0.824-0.137-1.657-0.208-2.411c0.646-0.344,1.145-0.688,1.696-0.882
			c1.176-0.41,1.164-1.334,0.73-2.104c-1.535-2.705-3.199-5.333-4.801-8c-0.287-0.479-0.516-0.995-0.771-1.492
			C104.773,91.514,104.854,91.479,104.935,91.444z M111.273,100.3c1.576,0.658,2.987-0.104,3.461-1.557
			C113.473,99.312,112.372,99.806,111.273,100.3z"/>
		<path style="fill-rule:evenodd;clip-rule:evenodd;fill:#3C3C3B;" d="M103.541,136.795c0.283-2.731,0.72-5.322,2.851-7.436
			c1.415-1.403,2.404-3.233,3.57-4.883c0.338-0.479,0.628-0.987,0.939-1.483c0.153,0.001,0.306,0.005,0.459,0.004
			c0.034,0.389,0.249,0.912,0.072,1.146c-1.322,1.749-1.455,4.199-3.318,5.629c-0.26,0.198-0.523,0.543-0.565,0.849
			c-0.377,2.709-2.267,4.396-4.065,6.151C103.488,136.772,103.541,136.795,103.541,136.795z"/>
		<path style="fill-rule:evenodd;clip-rule:evenodd;fill:#3C3C3B;" d="M123.374,113.615c0.909,0.519,1.979-1.535,2.62,0.42
			c-2.488,0.854-0.579,3.375-1.937,4.961c-1.141-0.453-1.533-1.609-1.629-2.688c-0.118-1.337-0.414-2.322-1.697-3.016
			c-0.468-0.253-0.701-1.12-0.813-1.746c-0.029-0.161,0.798-0.499,1.25-0.716c0.261-0.123,0.556-0.201,0.844-0.243
			c1.928-0.275,2.248,0.131,1.583,1.945C123.476,112.844,123.456,113.193,123.374,113.615z"/>
		<path style="fill-rule:evenodd;clip-rule:evenodd;fill:#3C3C3B;" d="M128.067,119.312c0.868,0.521,2.238-0.498,2.592,1.257
			c-1.485-0.124-1.88,0.663-2.13,2.026c-0.199,1.087-1.131,2.04-1.75,3.044c-0.355,0.578-0.731,1.146-1.096,1.72
			c-1.099-0.915-1.438-2.301-0.492-2.958c1.309-0.91,1.826-2.104,2.121-3.55C127.408,120.385,127.736,119.967,128.067,119.312z"/>
		<path style="fill-rule:evenodd;clip-rule:evenodd;fill:#3C3C3B;" d="M129.096,98.194c0.501-0.771,1.223-1.587,2.463-0.854
			c-0.95,1.514-1.862,2.966-2.775,4.42c-0.079-0.017-0.158-0.032-0.238-0.049c0.112-0.415,0.223-0.831,0.332-1.238
			c-0.941,0-2.149,0.361-2.753-0.088c-0.814-0.606-1.16-1.841-1.434-2.984c0.553,0.419,1.104,0.837,1.481,1.122
			C127.148,98.412,127.961,98.321,129.096,98.194z"/>
		<path style="fill-rule:evenodd;clip-rule:evenodd;fill:#3C3C3B;" d="M87.564,136.266c-0.38,0.042-0.764,0.138-1.143,0.114
			c-0.399-0.024-0.806-0.135-1.179-0.28c-0.067-0.028-0.048-0.583,0.03-0.612c0.488-0.172,1.019-0.393,1.507-0.338
			c0.343,0.038,0.637,0.492,0.953,0.759C87.677,136.028,87.622,136.146,87.564,136.266z"/>
	</g>
	<g>
		<path style="fill:#F1861E;" d="M32.982,117.399c0,0-0.705,0.487-1.972,1.47c-1.265,0.984-3.098,2.461-5.279,4.493
			c-2.165,2.037-4.732,4.621-7.081,7.958c-1.16,1.668-2.26,3.539-2.992,5.607c-0.736,2.056-1.047,4.337-0.452,6.447
			c0.574,2.114,2.063,3.987,4.06,5.49c0.982,0.754,2.139,1.436,3.268,2.029l0.474,0.252l0.413,0.19
			c0.262,0.128,0.567,0.249,0.87,0.371c0.603,0.242,1.234,0.443,1.875,0.631c5.196,1.427,11.284,1.057,17.376-0.054
			c6.124-1.138,12.373-3.041,18.601-5.325c6.23-2.292,12.452-4.976,18.586-7.861c12.267-5.787,24.19-12.365,35.183-18.838
			c10.993-6.48,21.057-12.876,29.593-18.489c8.536-5.615,15.542-10.454,20.411-13.878c2.422-1.724,4.325-3.078,5.622-4.001
			c1.274-0.926,1.954-1.42,1.954-1.42l0.045-0.033c2.011-1.461,4.826-1.016,6.287,0.995c1.461,2.011,1.016,4.826-0.996,6.287
			c-0.029,0.021-0.077,0.055-0.106,0.075c0,0-0.72,0.491-2.068,1.413c-1.344,0.898-3.314,2.216-5.822,3.894
			c-5.028,3.321-12.244,8.001-21.026,13.419c-8.783,5.416-19.129,11.576-30.437,17.806c-11.309,6.222-23.574,12.534-36.241,18.065
			c-6.335,2.759-12.773,5.318-19.258,7.492c-6.484,2.165-13.021,3.959-19.556,4.979c-3.267,0.504-6.536,0.799-9.78,0.767
			c-3.239-0.038-6.469-0.406-9.536-1.356c-0.764-0.246-1.519-0.513-2.252-0.832c-0.366-0.16-0.728-0.315-1.108-0.514l-0.556-0.283
			l-0.466-0.266c-1.355-0.815-2.545-1.706-3.686-2.729c-1.125-1.02-2.141-2.171-2.949-3.459c-0.817-1.28-1.373-2.725-1.65-4.173
			c-0.545-2.939,0.158-5.717,1.184-7.96c1.036-2.272,2.389-4.152,3.752-5.796c2.756-3.273,5.577-5.647,7.937-7.517
			c2.375-1.857,4.335-3.176,5.684-4.051C32.238,117.824,32.982,117.399,32.982,117.399z"/>
	</g>
	<g>
		<path style="fill:#D41440;" d="M227.152,144.919c-2.101,2.528-5.855,2.875-8.382,0.773c-2.525-2.1-2.87-5.856-0.768-8.383
			c2.099-2.524,5.854-2.869,8.379-0.769C228.908,138.643,229.252,142.396,227.152,144.919z"/>
	</g>
	<g>
		<path style="fill:none;" d="M71.932,13.8c-1.048-0.08-2.201-0.129-3.435-0.104c-0.747,0.015-1.523,0.062-2.312,0.16
			c-0.394,0.054-0.791,0.12-1.181,0.214c-0.388,0.094-0.777,0.213-1.102,0.383c-0.162,0.083-0.304,0.185-0.389,0.283
			c-0.042,0.048-0.067,0.093-0.077,0.127c-0.001,0.006-0.014,0.054-0.012,0.052c0-0.003,0.018,0.055,0.018,0.055
			c0,0,0.03,0.008,0.03,0.008c0,0,0.01-0.03,0.008-0.022l-0.001,0.015c-0.006,0.032-0.023-0.039-0.023-0.032l-0.269-0.004
			c0,0.003-0.262,0.003-0.262,0.007c0,0.007,0,0.013,0,0.021c0,0.062,0.312,0.174,0.413,0.299c0.096,0.125,0.361,0.253,0.509,0.377
			c0.303,0.246,0.731,0.471,1.112,0.678c0.382,0.207,0.817,0.398,1.232,0.581c0.831,0.362,1.721,0.688,2.618,0.988
			c0.586,0.199,1.192,0.383,1.796,0.562c-0.042-0.643,0.002-1.3,0.142-1.961C70.958,15.484,71.374,14.58,71.932,13.8z"/>
		<path style="fill:none;" d="M84.083,21.301c1.581,0.205,3.144,0.35,4.646,0.363c0.453,0,0.9-0.01,1.334-0.045
			c0.433-0.035,0.857-0.095,1.234-0.197c0.187-0.053,0.365-0.116,0.503-0.19c0.142-0.071,0.243-0.174,0.273-0.216
			c0,0.003,0.008-0.004,0.009-0.004l0.002,0.002c0.001,0.002-0.003-0.002-0.004-0.004l-0.061-0.05l-0.066-0.034
			c-0.001,0.01-0.003,0.017-0.004,0.021c0.003-0.015,0.081-0.016,0.083-0.034c0.005-0.036,0.035-0.08,0.015-0.142
			c-0.037-0.125-0.109-0.271-0.224-0.414c-0.229-0.288-0.528-0.553-0.845-0.796c-0.319-0.242-0.65-0.464-0.99-0.672
			c-0.682-0.409-1.371-0.769-2.048-1.083c-0.678-0.314-1.338-0.596-1.976-0.843c-0.414-0.162-0.816-0.312-1.206-0.449
			c0.194,0.939,0.204,1.933-0.007,2.933C84.613,20.109,84.384,20.729,84.083,21.301z"/>
		<path style="fill:#009245;" d="M71.107,20.617c0.859,2.144,2.737,3.833,5.165,4.347c2.43,0.514,4.833-0.271,6.486-1.886
			c-1.965-0.178-3.94-0.497-5.896-0.902C74.911,21.756,72.977,21.25,71.107,20.617z"/>
		<path style="fill:#3C3C3B;" d="M93.117,21.172c0.015-0.095,0.018-0.188,0.013-0.28c-0.012-0.183-0.062-0.347-0.126-0.485
			c-0.129-0.28-0.301-0.484-0.474-0.661c-0.351-0.352-0.726-0.604-1.099-0.832c-0.374-0.227-0.75-0.42-1.124-0.598
			c-0.745-0.36-1.484-0.645-2.193-0.91c-1.214-0.444-2.356-0.791-3.397-1.091c0.016,0.065,0.03,0.132,0.044,0.199
			c0.391,0.138,0.793,0.287,1.208,0.449c0.637,0.248,1.299,0.528,1.976,0.845c0.678,0.313,1.369,0.673,2.051,1.082
			c0.34,0.207,0.675,0.431,0.994,0.674c0.317,0.243,0.624,0.509,0.854,0.797c0.114,0.142,0.204,0.293,0.241,0.417
			c0.021,0.062,0.025,0.114,0.02,0.151c-0.002,0.018-0.049,0.043-0.055,0.057c-0.003,0.016-0.038,0.003-0.043,0.009
			c0-0.001,0-0.001,0-0.001c0.002-0.003-0.021-0.032-0.018-0.042l-0.024,0.008l-0.016,0.033c-0.001,0.006,0.06,0.017,0.059,0.017
			l0.03-0.01c-0.002,0,0.014,0,0.014,0c-0.03,0-0.116,0.147-0.258,0.219c-0.138,0.075-0.313,0.145-0.499,0.197
			c-0.377,0.104-0.8,0.165-1.232,0.2c-0.434,0.035-0.88,0.048-1.333,0.048c-1.503-0.014-3.065-0.158-4.646-0.363
			c-0.351,0.667-0.799,1.265-1.325,1.777c0.037,0.004,0.074,0.008,0.11,0.011c2.001,0.176,3.988,0.241,5.93,0.064
			c0.486-0.044,0.969-0.107,1.45-0.198c0.481-0.092,0.96-0.206,1.439-0.395c0.24-0.098,0.481-0.207,0.719-0.372
			c0.235-0.165,0.486-0.384,0.637-0.749l0.029-0.081l0.013-0.041c0.005-0.013,0.004-0.016,0.006-0.023L93.117,21.172z"/>
		<path style="fill:#3C3C3B;" d="M92.006,20.993C92.006,20.993,92.006,20.993,92.006,20.993
			C92.011,20.988,91.997,21.004,92.006,20.993z"/>
		<path style="fill:#3C3C3B;" d="M63.34,14.785c0.001-0.002,0.002-0.002,0.002-0.002C63.343,14.782,63.342,14.783,63.34,14.785z"/>
		<path style="fill:#3C3C3B;" d="M68.825,17.883c-0.897-0.3-1.772-0.626-2.603-0.988c-0.414-0.183-0.818-0.374-1.201-0.581
			c-0.381-0.208-0.745-0.433-1.048-0.679c-0.148-0.124-0.286-0.253-0.383-0.377c-0.1-0.125-0.4-0.238-0.411-0.3
			c0-0.008-0.255-0.082-0.255-0.089c0-0.005,0,0.13,0,0.13h0.535c0,0,0.02,0.016,0.027-0.017l0.009-0.06
			c0.001-0.008,0.004-0.029,0.005-0.035c-0.001,0.001-0.034-0.008-0.033-0.013c0.01-0.035,0.019-0.086,0.062-0.135
			c0.083-0.098,0.219-0.202,0.38-0.285c0.325-0.172,0.711-0.29,1.098-0.384c0.39-0.094,0.786-0.162,1.18-0.215
			c0.789-0.1,1.565-0.146,2.312-0.161c1.235-0.024,2.386,0.024,3.435,0.105c0.043-0.061,0.086-0.121,0.132-0.18
			c-1.076-0.147-2.264-0.287-3.557-0.373c-0.757-0.046-1.549-0.083-2.376-0.056c-0.414,0.012-0.837,0.036-1.271,0.093
			c-0.435,0.058-0.879,0.137-1.342,0.316c-0.231,0.092-0.471,0.208-0.704,0.414c-0.114,0.102-0.228,0.231-0.312,0.395
			c-0.022,0.043-0.047,0.1-0.066,0.151l-0.018,0.051l-0.014,0.041c0.004-0.02-0.013,0.046-0.014,0.054l-0.007,0.035l-0.013,0.069
			c-0.009,0.048-0.01,0.096-0.013,0.143c-0.009,0.384,0.132,0.695,0.28,0.939c0.153,0.248,0.329,0.447,0.508,0.632
			c0.363,0.368,0.754,0.666,1.156,0.945c0.403,0.279,0.82,0.531,1.246,0.77c1.706,0.946,3.548,1.692,5.45,2.341
			c0.036,0.013,0.073,0.024,0.108,0.036c-0.274-0.686-0.443-1.417-0.495-2.173C70.009,18.266,69.411,18.082,68.825,17.883z"/>
		<path style="fill:#3C3C3B;" d="M83.093,21.166c-1.919-0.282-3.864-0.63-5.796-1.046c-1.935-0.403-3.853-0.876-5.722-1.396
			c-0.322-0.091-0.643-0.187-0.962-0.28c0.051,0.756,0.22,1.487,0.495,2.173c1.869,0.633,3.804,1.139,5.754,1.559
			c1.956,0.405,3.931,0.725,5.896,0.902c0.526-0.514,0.975-1.111,1.325-1.777C83.754,21.258,83.424,21.213,83.093,21.166z"/>
		<path style="fill:#009245;" d="M84.761,16.514c-0.014-0.067-0.028-0.134-0.044-0.199c-0.619-2.609-2.686-4.761-5.482-5.352
			c-2.79-0.591-5.544,0.532-7.17,2.658c-0.045,0.059-0.089,0.119-0.132,0.179c-0.558,0.78-0.97,1.685-1.181,2.684
			c-0.14,0.661-0.181,1.318-0.139,1.961c0.32,0.094,0.64,0.189,0.962,0.28c1.869,0.52,3.787,0.992,5.722,1.396
			c1.932,0.416,3.877,0.764,5.796,1.046c0.331,0.047,0.661,0.092,0.99,0.135c0.301-0.571,0.531-1.191,0.671-1.854
			C84.965,18.446,84.956,17.452,84.761,16.514z"/>
	</g>
</g>
</svg>
